<?xml version="1.0" encoding="UTF-8" standalone="no"?>
<!-- Created with Inkscape (http://www.inkscape.org/) -->

<svg
   width="1200"
   height="630"
   viewBox="0 0 317.49999 166.6875"
   version="1.1"
   id="svg90"
   xml:space="preserve"
   inkscape:version="1.2.2 (b0a8486541, 2022-12-01)"
   sodipodi:docname="og.svg"
   xmlns:inkscape="http://www.inkscape.org/namespaces/inkscape"
   xmlns:sodipodi="http://sodipodi.sourceforge.net/DTD/sodipodi-0.dtd"
   xmlns="http://www.w3.org/2000/svg"
   xmlns:svg="http://www.w3.org/2000/svg"><sodipodi:namedview
     id="namedview92"
     pagecolor="#ffffff"
     bordercolor="#000000"
     borderopacity="0.25"
     inkscape:showpageshadow="2"
     inkscape:pageopacity="0.0"
     inkscape:pagecheckerboard="0"
     inkscape:deskcolor="#d1d1d1"
     inkscape:document-units="mm"
     showgrid="false"
     inkscape:zoom="0.69397447"
     inkscape:cx="466.15548"
     inkscape:cy="404.19355"
     inkscape:window-width="1854"
     inkscape:window-height="1003"
     inkscape:window-x="0"
     inkscape:window-y="0"
     inkscape:window-maximized="1"
     inkscape:current-layer="layer1" /><defs
     id="defs87" /><g
     inkscape:label="Layer 1"
     inkscape:groupmode="layer"
     id="layer1"><g
       id="g173"
       transform="matrix(0.46397126,0,0,0.46397126,10.279223,57.334913)">
	<rect
   y="15.066"
   fill="#383838"
   width="17.771"
   height="97.023003"
   id="rect153"
   x="0" />
	<polygon
   fill="#383838"
   points="34.14,15.09 52.401,15.09 104.204,81.503 104.204,15.09 121.482,15.09 121.482,112.089 105.555,112.089 51.887,43.295 51.887,112.089 34.14,112.089 "
   id="polygon155" />
	<path
   fill="#383838"
   d="m 223.759,43.725 c -2.238,-5.301 -5.541,-9.979 -9.657,-13.917 -15.364,-14.442 -38.376,-14.73 -42.229,-14.73 h -31.459 v 97.035 h 31.974 c 4.679,0 26.936,-0.813 41.834,-15.031 4.117,-3.924 7.299,-8.591 9.538,-13.903 2.477,-5.732 3.721,-12.397 3.721,-19.505 -0.001,-7.408 -1.245,-14.072 -3.722,-19.949 m -15.808,32.716 c -1.281,3.027 -3.207,5.804 -5.637,8.196 -10.733,10.242 -28.922,10.005 -29.437,10.005 H 158.96 V 31.521 h 13.917 c 0.144,0 4.631,-0.145 10.638,0.98 5.517,1.053 13.067,3.459 18.656,8.748 2.417,2.274 4.356,5.169 5.636,8.329 1.663,3.674 2.441,9.143 2.441,14.097 0.001,4.797 -0.777,9.093 -2.297,12.766"
   id="path157" />
	<path
   fill="#383838"
   d="m 492.809,82.987 11.585,11.416 c -3.544,4.307 -7.899,7.993 -12.782,10.816 -7.61,4.429 -16.249,6.894 -25.057,6.894 -6.726,0 -13.091,-1.389 -19.17,-3.926 -5.983,-2.441 -11.248,-5.887 -15.7,-10.482 -4.547,-4.428 -8.111,-9.691 -10.528,-15.58 -2.587,-6.055 -3.903,-12.35 -3.903,-18.966 0,-6.737 1.316,-13.021 3.903,-19.1 2.417,-5.874 5.981,-11.139 10.528,-15.556 4.452,-4.583 9.717,-8.089 15.7,-10.494 3.112,-1.268 6.271,-2.273 9.574,-2.932 3.086,-0.623 6.316,-0.957 9.596,-0.957 1.962,0 3.949,0.143 5.912,0.395 5.647,0.635 11.151,2.249 16.25,4.823 6.63,3.362 11.033,6.545 15.677,12.42 l -11.585,11.38 c -3.015,-3.9 -6.916,-7.107 -11.343,-9.417 -4.787,-2.274 -9.766,-3.482 -14.911,-3.482 -8.927,0 -17.16,3.339 -23.333,9.681 -6.369,6.15 -9.766,14.359 -9.766,23.239 0,8.747 3.396,16.955 9.766,23.13 6.173,6.319 14.406,9.645 23.333,9.645 5.84,0 11.752,-1.603 16.777,-4.522 3.709,-2.226 6.94,-5.074 9.477,-8.425"
   id="path159" />
	<path
   fill="#383838"
   d="m 606.297,44.156 c -2.439,-5.887 -6.125,-11.129 -10.672,-15.544 -4.598,-4.583 -9.908,-8.053 -15.796,-10.458 -6.152,-2.548 -12.685,-3.877 -19.388,-3.877 -6.652,0 -13.233,1.329 -19.358,3.877 -5.864,2.406 -11.228,5.875 -15.869,10.458 -4.475,4.416 -8.042,9.657 -10.627,15.544 -2.584,6.079 -3.829,12.349 -3.829,18.941 0,6.714 1.245,13.01 3.829,19.052 2.585,5.888 6.152,11.152 10.627,15.556 4.642,4.596 10.005,8.041 15.869,10.482 6.125,2.537 12.706,3.926 19.358,3.926 6.703,0 13.235,-1.389 19.388,-3.926 5.888,-2.441 11.198,-5.887 15.796,-10.482 4.547,-4.403 8.232,-9.668 10.672,-15.556 2.633,-6.042 3.998,-12.338 3.998,-19.052 0,-6.592 -1.365,-12.862 -3.998,-18.941 M 584.04,86.313 c -6.246,6.318 -14.719,9.669 -23.599,9.669 -8.901,0 -17.326,-3.351 -23.62,-9.669 -6.246,-6.175 -9.692,-14.349 -9.692,-23.216 0,-8.722 3.446,-16.883 9.692,-23.082 6.294,-6.33 14.719,-9.657 23.62,-9.657 8.88,0 17.353,3.327 23.599,9.657 6.318,6.199 9.837,14.36 9.837,23.082 0,8.868 -3.519,17.042 -9.837,23.216"
   id="path161" />
	<path
   fill="#383838"
   d="M 379.367,15.09 H 360.03 l -34.978,81.035 -6.916,15.964 h 18.546 l 9.047,-20.438 h 48.547 l 8.879,20.438 h 18.19 z m -27.233,61.937 17.853,-41.128 17.926,41.128 z"
   id="path163" />
	<path
   fill="#383838"
   d="M 321.619,98.71 302.772,70.507 c 4.093,-0.946 9.238,-3.04 13.474,-7.133 2.477,-2.441 4.44,-5.169 5.684,-8.448 1.376,-3.41 2.215,-7.359 2.215,-11.739 0,-11.201 -5.421,-20.068 -15.03,-24.698 -6.761,-3.267 -13.258,-3.411 -14.084,-3.411 h -57.354 v 97.035 h 17.95 V 30.071 h 39.249 c 0.276,0 4.021,0.145 7.599,1.915 4.392,2.178 6.521,5.756 6.521,11.201 0,4.26 -1.148,7.252 -3.351,9.431 -3.709,3.529 -9.932,3.661 -10.494,3.661 h -23.526 l 39.142,55.835 h 19.816 z"
   id="path165" />
	<path
   fill="#fd4f00"
   d="m 633.533,33.231 c -6.846,6.809 -16.178,8.533 -20.869,3.817 -4.715,-4.703 -2.991,-14.036 3.83,-20.845 6.797,-6.821 16.13,-8.532 20.845,-3.83 4.716,4.703 2.99,14.048 -3.806,20.858"
   id="path167" />
	<path
   fill="#fd4f00"
   d="m 625.203,59.269 c -5.12,-1.865 -8.279,-6.27 -6.963,-9.823 1.291,-3.555 6.51,-4.93 11.656,-3.04 5.168,1.855 8.279,6.271 6.986,9.825 -1.29,3.553 -6.507,4.906 -11.679,3.038"
   id="path169" />
	<path
   fill="#fd4f00"
   d="m 610.031,9.944 c 0,5.493 -3.063,9.956 -6.893,9.956 -3.782,0 -6.845,-4.462 -6.845,-9.956 0,-5.48 3.063,-9.944 6.845,-9.944 3.83,0 6.893,4.464 6.893,9.944"
   id="path171" />
</g></g></svg>
